<svg xmlns="http://www.w3.org/2000/svg" viewBox="-1.2000000000000002 -2.4000000000000004 26.4 32.4" fill="none" x="0px" y="0px"><path fill-rule="evenodd" clip-rule="evenodd" d="M3 5.5C3 5.22386 3.22386 5 3.5 5H10.691C10.8804 5 11.0535 5.107 11.1382 5.27639L12 7H20.5C20.7761 7 21 7.22386 21 7.5V18.5C21 18.7761 20.7761 19 20.5 19H3.5C3.22386 19 3 18.7761 3 18.5V5.5ZM15 13.5C15 13.7761 14.7761 14 14.5 14H13V15.5C13 15.7761 12.7761 16 12.5 16H11.5C11.2239 16 11 15.7761 11 15.5V14H9.5C9.22386 14 9 13.7761 9 13.5V12.5C9 12.2239 9.22386 12 9.5 12H11V10.5C11 10.2239 11.2239 10 11.5 10H12.5C12.7761 10 13 10.2239 13 10.5V12H14.5C14.7761 12 15 12.2239 15 12.5V13.5Z" fill="black"/></svg>